<svg xmlns="http://www.w3.org/2000/svg" xmlns:xlink="http://www.w3.org/1999/xlink" xmlns:fi="http://pattern.flaticon.com/" x="0" y="0" width="2160" height="1080" viewBox="0 0 2749.090909090909 1374.5454545454545"><rect x="0px" y="0px" width="100%" height="100%" opacity="1" fill="#ffffff"/><defs><g transform="matrix(0.1171875 0 0 0.1171875 63 24)" id="L1_0"><path d="m357.823 63.667 90.51 90.51 11.314-11.314c18.745-18.745 18.745-49.137 0-67.882l-22.627-22.627c-18.745-18.745-49.137-18.745-67.882 0zm83.884 61.256-54.63-54.63c-3.892-3.892-2.795-10.486 2.168-12.864 11.901-5.703 26.598-3.624 36.46 6.238l22.627 22.627c9.862 9.862 11.941 24.559 6.238 36.46-2.377 4.964-8.972 6.06-12.863 2.169z" fill="#8caac8"/><path d="m63.667 357.823 90.51 90.51-11.314 11.314c-18.745 18.745-49.137 18.745-67.882 0l-22.627-22.627c-18.745-18.745-18.745-49.137 0-67.882zm61.256 83.884-54.63-54.63c-3.892-3.892-10.486-2.795-12.864 2.168-5.703 11.901-3.624 26.598 6.238 36.46l22.627 22.627c9.862 9.862 24.559 11.941 36.46 6.238 4.964-2.377 6.06-8.972 2.169-12.863z" fill="#8caac8"/><circle cx="256" cy="256" r="224" fill="#a5c3dc"/><path d="m40 264c-4.418 0-8-3.582-8-8 0-59.833 23.3-116.084 65.608-158.393 42.308-42.307 98.559-65.607 158.392-65.607 4.418 0 8 3.582 8 8s-3.582 8-8 8c-114.691 0-208 93.309-208 208 0 4.418-3.582 8-8 8z" fill="#d7e6f0"/><circle cx="256" cy="256" r="192" fill="#8c3c14"/><path d="m72 264c-4.418 0-8-3.582-8-8 0-105.869 86.131-192 192-192 4.418 0 8 3.582 8 8s-3.582 8-8 8c-97.047 0-176 78.953-176 176 0 4.418-3.582 8-8 8z" fill="#d26e28"/><g><path d="m288 194.667v-32c0-8.837-7.163-16-16-16h-32c-8.837 0-16 7.163-16 16v32c0 8.837 7.163 16 16 16h32c8.837 0 16-7.164 16-16z" fill="#f28a39"/><path d="m256 194.667c0-8.836 7.164-16 16-16h16v16c0 8.836-7.164 16-16 16h-16z" fill="#d26e28"/></g><g><path d="m200 296v-32c0-8.837-7.163-16-16-16h-32c-8.837 0-16 7.163-16 16v32c0 8.837 7.163 16 16 16h32c8.837 0 16-7.163 16-16z" fill="#f28a39"/><path d="m168 296c0-8.836 7.164-16 16-16h16v16c0 8.836-7.164 16-16 16h-16z" fill="#d26e28"/></g><g><path d="m368 344v-32c0-8.837-7.163-16-16-16h-32c-8.837 0-16 7.163-16 16v32c0 8.837 7.163 16 16 16h32c8.837 0 16-7.163 16-16z" fill="#f28a39"/><path d="m336 344c0-8.836 7.164-16 16-16h16v16c0 8.836-7.164 16-16 16h-16z" fill="#d26e28"/></g><g><path d="m241.941 397.902 22.627-22.627c6.248-6.248 6.248-16.379 0-22.627l-22.627-22.627c-6.248-6.248-16.379-6.248-22.627 0l-22.627 22.627c-6.248 6.248-6.248 16.379 0 22.627l22.627 22.627c6.248 6.248 16.379 6.248 22.627 0z" fill="#d26e28"/><path d="m364.686 253.98 22.627-22.627c6.248-6.248 6.248-16.379 0-22.627l-22.627-22.627c-6.248-6.248-16.379-6.248-22.627 0l-22.627 22.627c-6.248 6.248-6.248 16.379 0 22.627l22.627 22.627c6.248 6.249 16.379 6.249 22.627 0z" fill="#d26e28"/><path d="m219.314 375.274c6.248-6.248 16.379-6.248 22.627 0l11.314 11.314-11.314 11.314c-6.248 6.248-16.379 6.248-22.627 0l-11.314-11.314z" fill="#d26e28"/></g><g><path d="m182.627 169.373c12.497 12.497-32.758 57.752-45.255 45.255s-12.497-32.758 0-45.255 32.759-12.497 45.255 0z" fill="#faa019"/><path d="m136 200c-4.418 0-8-3.582-8-8 0-17.645 14.355-32 32-32 4.418 0 8 3.582 8 8s-3.582 8-8 8c-8.822 0-16 7.178-16 16 0 4.418-3.582 8-8 8z" fill="#ffd205"/></g><g><path d="m288 272c0 17.673-64 17.673-64 0s14.327-32 32-32 32 14.327 32 32z" fill="#faa019"/><path d="m232 280c-4.418 0-8-3.582-8-8 0-17.645 14.355-32 32-32 4.418 0 8 3.582 8 8s-3.582 8-8 8c-8.822 0-16 7.178-16 16 0 4.418-3.582 8-8 8z" fill="#ffd205"/></g><g><path d="m336 173.333c-17.673 0-32-14.327-32-32s14.327-32 32-32 17.673 64 0 64z" fill="#faa019"/><path d="m312 149.333c-4.418 0-8-3.582-8-8 0-17.645 14.355-32 32-32 4.418 0 8 3.582 8 8s-3.582 8-8 8c-8.822 0-16 7.178-16 16 0 4.418-3.582 8-8 8z" fill="#ffd205"/></g><g><circle cx="349" cy="362" r="8" fill="#f04b37"/><circle cx="141" cy="168" r="8" fill="#f04b37"/><circle cx="293" cy="285" r="8" fill="#f04b37"/><circle cx="405" cy="202" r="8" fill="#f04b37"/><circle cx="184" cy="386" r="8" fill="#f04b37"/><circle cx="186" cy="205" r="8" fill="#f04b37"/><circle cx="309" cy="112" r="8" fill="#f04b37"/><circle cx="112" cy="317" r="8" fill="#f04b37"/></g><g><circle cx="165" cy="370" r="8" fill="#5faa46"/><circle cx="373" cy="176" r="8" fill="#5faa46"/><circle cx="221" cy="293" r="8" fill="#5faa46"/><circle cx="109" cy="210" r="8" fill="#5faa46"/><circle cx="304" cy="373" r="8" fill="#5faa46"/><circle cx="328" cy="213" r="8" fill="#5faa46"/><circle cx="218" cy="128" r="8" fill="#5faa46"/><circle cx="402" cy="325" r="8" fill="#5faa46"/></g><g><circle cx="380" cy="332" r="8" fill="#5faa46"/><circle cx="185" cy="124" r="8" fill="#f04b37"/><circle cx="302" cy="276" r="8" fill="#5faa46"/><circle cx="220" cy="388" r="8" fill="#5faa46"/><circle cx="388" cy="156" r="8" fill="#5faa46"/><circle cx="222" cy="169" r="8" fill="#5faa46"/><circle cx="129" cy="292" r="8" fill="#5faa46"/><circle cx="334" cy="94" r="8" fill="#5faa46"/></g><g><circle cx="370" cy="146" r="8" fill="#f04b37"/><circle cx="188" cy="361" r="8" fill="#f04b37"/><circle cx="305" cy="209" r="8" fill="#f04b37"/><circle cx="222" cy="97" r="8" fill="#f04b37"/><circle cx="386" cy="304" r="8" fill="#f04b37"/><circle cx="225" cy="316" r="8" fill="#f04b37"/><circle cx="133" cy="232" r="8" fill="#f04b37"/><circle cx="337" cy="390" r="8" fill="#f04b37"/></g></g><g transform="matrix(0.1171875 0 0 0.1171875 258 191)" id="L1_1"><path d="m160 256h192v144h-192z" fill="#a5c3dc"/><path d="m264 64h-16c-61.856 0-112 50.144-112 112 0 44.183 35.817 80 80 80h80c44.183 0 80-35.817 80-80 0-61.856-50.144-112-112-112z" fill="#5faa46"/><path d="m32 400h448c8.837 0 16 7.163 16 16 0 8.837-7.163 16-16 16h-448c-8.837 0-16-7.163-16-16 0-8.837 7.163-16 16-16z" fill="#d7e6f0"/><path d="m77.333 432h357.333l-25.473 23.514c-5.911 5.456-13.66 8.486-21.705 8.486h-262.977c-8.044 0-15.794-3.03-21.705-8.486z" fill="#a5c3dc"/><path d="m144 208h-16c-61.856 0-112 50.144-112 112 0 44.183 35.817 80 80 80h80c44.183 0 80-35.817 80-80 0-61.856-50.144-112-112-112z" fill="#ff6955"/><path d="m384 208h-16c-61.856 0-112 50.144-112 112 0 44.183 35.817 80 80 80h80c44.183 0 80-35.817 80-80 0-61.856-50.144-112-112-112z" fill="#faa019"/><path d="m16 320h72c26.51 0 48-21.49 48-48v-64h-8c-61.856 0-112 50.144-112 112z" fill="#ff8773"/><path d="m256 320h72c26.51 0 48-21.49 48-48v-64h-8c-61.856 0-112 50.144-112 112z" fill="#ffd23c"/><path d="m136 176h72c26.51 0 48-21.49 48-48v-64h-8c-61.856 0-112 50.144-112 112z" fill="#afd763"/><path d="m96 384c-35.29 0-64-28.71-64-64 0-52.935 43.065-96 96-96h16c52.935 0 96 43.065 96 96 0 35.29-28.71 64-64 64z" fill="#a55023"/><g><circle cx="133" cy="317" r="8" fill="#8c3c14"/><circle cx="148" cy="289" r="4" fill="#8c3c14"/></g><g><circle cx="93" cy="266" r="8" fill="#8c3c14"/><circle cx="78" cy="294" r="4" fill="#8c3c14"/><circle cx="172" cy="260" r="4" fill="#8c3c14"/><circle cx="76" cy="334" r="4" fill="#8c3c14"/><circle cx="148" cy="356" r="4" fill="#8c3c14"/><circle cx="201" cy="292" r="4" fill="#8c3c14"/></g><g><circle cx="200" cy="322" r="8" fill="#8c3c14"/><circle cx="185" cy="350" r="4" fill="#8c3c14"/></g></g><g transform="matrix(0.1171875 0 0 0.1171875 247 30)" id="L1_2"><g><path d="m256 304c-53.019 0-96-42.981-96-96v-96h192v96c0 53.019-42.981 96-96 96z" fill="#555a6e"/><path d="m256 112v192c53.019 0 96-42.98 96-96v-96z" fill="#463c4b"/><circle cx="256" cy="112" r="96" fill="#d7e6f0"/><g><g><path d="m289.941 78.059-11.314-11.314c-12.497-12.497-32.758-12.497-45.255 0l-11.314 11.314 33.942 33.941z" fill="#91c83c"/><path d="m222.059 78.059-11.314 11.314c-12.497 12.497-12.497 32.758 0 45.255l22.627 22.627c12.497 12.497 32.758 12.497 45.255 0l11.314-11.314z" fill="#f06423"/><path d="m256 112 33.941 33.941 11.314-11.314c12.497-12.497 12.497-32.758 0-45.255l-11.314-11.314z" fill="#f04b37"/></g><path d="m227.716 95.03c.007-.007.014-.015.022-.022l5.635-5.635-5.639-5.639c-.006-.006-.012-.012-.018-.018s-.012-.012-.018-.018l-5.639-5.64-5.656 5.657-5.658 5.657c-6.043 6.044-9.372 14.081-9.372 22.627s3.329 16.583 9.372 22.627c1.563 1.562 3.609 2.343 5.657 2.343 2.047 0 4.095-.781 5.657-2.343 3.124-3.124 3.125-8.189 0-11.314-3.022-3.022-4.687-7.041-4.687-11.314s1.665-8.292 4.686-11.313z" fill="#faa019"/><path d="m256 57.373c-8.547 0-16.583 3.329-22.627 9.373l-3.771 3.771-7.542 7.542 5.658 5.658 5.656 5.656 5.656-5.656 5.658-5.658c3.022-3.022 7.04-4.686 11.313-4.686 4.418 0 8-3.582 8-8s-3.583-8-8.001-8z" fill="#afd763"/></g><circle cx="280" cy="40" r="8" fill="#a5c3dc"/><circle cx="312" cy="56" r="8" fill="#a5c3dc"/><circle cx="328" cy="136" r="8" fill="#a5c3dc"/><circle cx="216" cy="168" r="8" fill="#a5c3dc"/><circle cx="184" cy="104" r="8" fill="#a5c3dc"/><circle cx="200" cy="72" r="8" fill="#a5c3dc"/></g><g><path d="m144 496c-53.019 0-96-42.981-96-96v-96h192v96c0 53.019-42.981 96-96 96z" fill="#555a6e"/><path d="m144 304v192c53.019 0 96-42.98 96-96v-96z" fill="#463c4b"/><circle cx="144" cy="304" r="96" fill="#d7e6f0"/><g><g><path d="m177.941 270.059-11.314-11.314c-12.497-12.497-32.758-12.497-45.255 0l-11.314 11.314 33.942 33.941z" fill="#91c83c"/><path d="m110.059 270.059-11.314 11.314c-12.497 12.497-12.497 32.758 0 45.255l22.627 22.627c12.497 12.497 32.758 12.497 45.255 0l11.314-11.314z" fill="#f06423"/><path d="m144 304 33.941 33.941 11.314-11.314c12.497-12.497 12.497-32.758 0-45.255l-11.314-11.314z" fill="#f04b37"/></g><path d="m115.716 287.03c.007-.007.014-.015.022-.022l5.635-5.635-5.639-5.639c-.006-.006-.012-.012-.018-.018s-.012-.012-.018-.018l-5.64-5.64-5.656 5.657-5.658 5.657c-6.043 6.044-9.372 14.081-9.372 22.627s3.329 16.583 9.372 22.627c1.563 1.562 3.609 2.343 5.657 2.343 2.047 0 4.095-.781 5.657-2.343 3.124-3.124 3.125-8.189 0-11.314-3.022-3.022-4.687-7.041-4.687-11.314s1.665-8.292 4.686-11.313z" fill="#faa019"/><path d="m144 249.373c-8.547 0-16.583 3.329-22.627 9.373l-3.771 3.771-7.542 7.542 5.658 5.658 5.656 5.656 5.656-5.656 5.658-5.658c3.022-3.022 7.04-4.686 11.313-4.686 4.418 0 8-3.582 8-8s-3.583-8-8.001-8z" fill="#afd763"/></g><circle cx="168" cy="232" r="8" fill="#a5c3dc"/><circle cx="200" cy="248" r="8" fill="#a5c3dc"/><circle cx="216" cy="328" r="8" fill="#a5c3dc"/><circle cx="104" cy="360" r="8" fill="#a5c3dc"/><circle cx="72" cy="296" r="8" fill="#a5c3dc"/><circle cx="88" cy="264" r="8" fill="#a5c3dc"/></g><g><path d="m368 496c-53.019 0-96-42.981-96-96v-96h192v96c0 53.019-42.981 96-96 96z" fill="#555a6e"/><path d="m368 304v192c53.019 0 96-42.98 96-96v-96z" fill="#463c4b"/><circle cx="368" cy="304" r="96" fill="#d7e6f0"/><g><g><path d="m401.941 270.059-11.314-11.314c-12.497-12.497-32.758-12.497-45.255 0l-11.314 11.314 33.942 33.941z" fill="#91c83c"/><path d="m334.059 270.059-11.314 11.314c-12.497 12.497-12.497 32.758 0 45.255l22.627 22.627c12.497 12.497 32.758 12.497 45.255 0l11.314-11.314z" fill="#f06423"/><path d="m368 304 33.941 33.941 11.314-11.314c12.497-12.497 12.497-32.758 0-45.255l-11.314-11.314z" fill="#f04b37"/></g><path d="m339.716 287.03c.007-.007.014-.015.022-.022l5.635-5.635-5.639-5.639c-.006-.006-.012-.012-.018-.018s-.012-.012-.018-.018l-5.639-5.64-5.656 5.657-5.658 5.657c-6.043 6.044-9.372 14.081-9.372 22.627s3.329 16.583 9.372 22.627c1.563 1.562 3.609 2.343 5.657 2.343 2.047 0 4.095-.781 5.657-2.343 3.124-3.124 3.125-8.189 0-11.314-3.022-3.022-4.687-7.041-4.687-11.314s1.665-8.292 4.686-11.313z" fill="#faa019"/><path d="m368 249.373c-8.547 0-16.583 3.329-22.627 9.373l-3.771 3.771-7.542 7.542 5.658 5.658 5.656 5.656 5.656-5.656 5.658-5.658c3.022-3.022 7.04-4.686 11.313-4.686 4.418 0 8-3.582 8-8s-3.583-8-8.001-8z" fill="#afd763"/></g><circle cx="392" cy="232" r="8" fill="#a5c3dc"/><circle cx="424" cy="248" r="8" fill="#a5c3dc"/><circle cx="440" cy="328" r="8" fill="#a5c3dc"/><circle cx="328" cy="360" r="8" fill="#a5c3dc"/><circle cx="296" cy="296" r="8" fill="#a5c3dc"/><circle cx="312" cy="264" r="8" fill="#a5c3dc"/></g></g><g transform="matrix(0.1171875 0 0 0.1171875 -21.999999055862418 297)" id="L1_3"><path d="m256 48c-81.611 0-158.144 21.821-224.037 59.939l.037.074 80 138.567v89.42c0 8.837 7.163 16 16 16 8.837 0 16-7.163 16-16v-4.137c0-8.185 10.836-11.088 14.928-4 .702 1.216 1.072 2.596 1.072 4v100.137c0 8.837 7.163 16 16 16 8.837 0 16-7.163 16-16v-16.996c0-8.185 10.836-11.088 14.928-4l35.065 60.736c2.189 3.791 5.749 6.68 9.993 7.756 7.155 1.814 14.35-1.4 17.87-7.496l210.144-363.987.037-.075c-65.893-38.117-142.426-59.938-224.037-59.938z" fill="#ffd23c"/><path d="m256 480c-4.418 0-8-3.582-8-8s3.582-8 8-8l206.151-357.073c2.209-3.827 7.102-5.138 10.929-2.928 3.826 2.209 5.138 7.102 2.929 10.928l-206.153 357.073c-2.847 4.934-8.157 8-13.856 8z" fill="#faa019"/><path d="m481.11 107.383c-1.809-6.295-5.984-11.448-11.757-14.509-65.241-34.59-139.018-52.874-213.353-52.874-74.336 0-148.112 18.284-213.354 52.874-5.772 3.061-9.947 8.213-11.756 14.508-1.819 6.331-1.007 12.959 2.287 18.663l8.008 13.867c4.456 7.717 12.471 12.054 20.754 12.053 3.769 0 7.595-.898 11.164-2.785 55.931-29.556 119.176-45.18 182.897-45.18s126.966 15.624 182.896 45.182c11.416 6.033 25.435 1.96 31.919-9.269l8.008-13.867c3.294-5.704 4.107-12.332 2.287-18.663z" fill="#f57828"/><path d="m481.046 107.182c-1.838-6.203-5.99-11.284-11.693-14.308-65.241-34.59-139.017-52.874-213.353-52.874-74.335 0-148.112 18.284-213.354 52.874-5.703 3.023-9.855 8.105-11.692 14.308-1.85 6.245-1.126 12.82 2.038 18.513l3.954 7.114 7.044-4.075c64.156-37.116 137.467-56.734 212.01-56.734s147.854 19.618 212.01 56.734l7.045 4.075 3.953-7.114c3.165-5.693 3.888-12.268 2.038-18.513z" fill="#faa019"/><g><circle cx="160" cy="192" r="48" fill="#f04b37"/><path d="m160 240c-4.418 0-8-3.582-8-8s3.582-8 8-8c17.645 0 32-14.355 32-32 0-4.418 3.582-8 8-8s8 3.582 8 8c0 26.467-21.533 48-48 48z" fill="#e1322d"/></g><g><circle cx="336" cy="192" r="48" fill="#f04b37"/><path d="m336 240c-4.418 0-8-3.582-8-8s3.582-8 8-8c17.645 0 32-14.355 32-32 0-4.418 3.582-8 8-8s8 3.582 8 8c0 26.467-21.532 48-48 48z" fill="#e1322d"/></g><g><circle cx="256" cy="304" r="48" fill="#f04b37"/><path d="m256 352c-4.418 0-8-3.582-8-8s3.582-8 8-8c17.645 0 32-14.355 32-32 0-4.418 3.582-8 8-8s8 3.582 8 8c0 26.467-21.532 48-48 48z" fill="#e1322d"/></g><path d="m224 176c-4.418 0-8-3.582-8-8s3.582-8 8-8c17.645 0 32-14.355 32-32 0-4.418 3.582-8 8-8s8 3.582 8 8c0 26.467-21.533 48-48 48z" fill="#5faa46"/><path d="m184 296c-4.418 0-8-3.582-8-8 0-26.467 21.533-48 48-48 4.418 0 8 3.582 8 8s-3.582 8-8 8c-17.645 0-32 14.355-32 32 0 4.418-3.582 8-8 8z" fill="#5faa46"/><path d="m336 304c-4.418 0-8-3.582-8-8 0-17.645-14.355-32-32-32-4.418 0-8-3.582-8-8s3.582-8 8-8c26.468 0 48 21.533 48 48 0 4.418-3.582 8-8 8z" fill="#5faa46"/><path d="m248 440c-4.418 0-8-3.582-8-8 0-17.645-14.355-32-32-32-4.418 0-8-3.582-8-8s3.582-8 8-8c26.467 0 48 21.533 48 48 0 4.418-3.582 8-8 8z" fill="#5faa46"/><path d="m256 232c-13.234 0-24-10.766-24-24s10.766-24 24-24c13.233 0 24 10.766 24 24s-10.767 24-24 24zm0-32c-4.411 0-8 3.589-8 8s3.589 8 8 8 8-3.589 8-8-3.589-8-8-8z" fill="#555a6e"/><path d="m144 296c-13.234 0-24-10.766-24-24s10.766-24 24-24 24 10.766 24 24-10.766 24-24 24zm0-32c-4.411 0-8 3.589-8 8s3.589 8 8 8 8-3.589 8-8-3.589-8-8-8z" fill="#555a6e"/><path d="m272 405.333c-13.233 0-24-10.766-24-24s10.767-24 24-24 24 10.766 24 24-10.767 24-24 24zm0-32c-4.411 0-8 3.589-8 8s3.589 8 8 8 8-3.589 8-8-3.589-8-8-8z" fill="#555a6e"/><circle cx="88" cy="168" r="8" fill="#ffff50"/><circle cx="212" cy="132" r="12" fill="#ffff50"/><circle cx="192" cy="352" r="8" fill="#ffff50"/><circle cx="404" cy="172" r="12" fill="#ffff50"/></g><g transform="matrix(0.1171875 0 0 0.1171875 124.99999965667723 137.99999992847438)" id="L1_4"><path d="m64 384c-26.467 0-48-21.532-48-48s21.533-48 48-48c4.418 0 8 3.582 8 8s-3.582 8-8 8c-17.645 0-32 14.355-32 32s14.355 32 32 32 32-14.355 32-32c0-8.548-3.329-16.584-9.373-22.627-1.5-1.5-2.343-3.535-2.343-5.657s.843-4.156 2.343-5.657l283.716-283.716c3.124-3.123 8.189-3.123 11.313 0 3.125 3.125 3.125 8.189 0 11.314l-278.524 278.525c5.762 8.069 8.868 17.704 8.868 27.818 0 26.468-21.533 48-48 48z" fill="#555a6e"/><circle cx="280" cy="120" r="40" fill="#f04b37"/><g><path d="m186.343 277.657-4.686 4.686c-3.124 3.124-8.19 3.124-11.314 0l-52.686-52.686c-3.124-3.124-3.124-8.19 0-11.314l4.686-4.686c3.124-3.124 8.19-3.124 11.314 0l52.686 52.686c3.124 3.124 3.124 8.19 0 11.314z" fill="#faa019"/><path d="m154.343 245.657-4.686 4.686c-3.124 3.124-8.19 3.124-11.314 0l-20.686-20.686c-3.124-3.124-3.124-8.19 0-11.314l4.686-4.686c3.124-3.124 8.19-3.124 11.314 0l20.686 20.686c3.124 3.124 3.124 8.19 0 11.314z" fill="#ffd205"/></g><g><path d="m378.343 85.657-4.686 4.686c-3.124 3.124-8.19 3.124-11.314 0l-52.686-52.686c-3.124-3.124-3.124-8.19 0-11.314l4.686-4.686c3.124-3.124 8.19-3.124 11.314 0l52.686 52.686c3.124 3.124 3.124 8.19 0 11.314z" fill="#faa019"/><path d="m346.343 53.657-4.686 4.686c-3.124 3.124-8.19 3.124-11.314 0l-20.686-20.686c-3.124-3.124-3.124-8.19 0-11.314l4.686-4.686c3.124-3.124 8.19-3.124 11.314 0l20.686 20.686c3.124 3.124 3.124 8.19 0 11.314z" fill="#ffd205"/></g><g><path d="m212.686 251.314-9.373 9.373c-6.248 6.248-16.379 6.248-22.627 0l-41.373-41.373c-6.248-6.248-6.248-16.379 0-22.627l9.373-9.373c6.248-6.248 16.379-6.248 22.627 0l41.373 41.373c6.249 6.248 6.249 16.378 0 22.627z" fill="#5faa46"/><path d="m180.686 219.314-9.373 9.373c-6.248 6.248-16.379 6.248-22.627 0l-9.373-9.373c-6.248-6.248-6.248-16.379 0-22.627l9.373-9.373c6.248-6.248 16.379-6.248 22.627 0l9.373 9.373c6.249 6.248 6.249 16.378 0 22.627z" fill="#91c83c"/></g><g><path d="m244.686 219.314-9.373 9.373c-6.248 6.248-16.379 6.248-22.627 0l-41.373-41.373c-6.248-6.248-6.248-16.379 0-22.627l9.373-9.373c6.248-6.248 16.379-6.248 22.627 0l41.373 41.373c6.249 6.248 6.249 16.378 0 22.627z" fill="#a55023"/><path d="m212.686 187.314-9.373 9.373c-6.248 6.248-16.379 6.248-22.627 0l-9.373-9.373c-6.248-6.248-6.248-16.379 0-22.627l9.373-9.373c6.248-6.248 16.379-6.248 22.627 0l9.373 9.373c6.249 6.248 6.249 16.378 0 22.627z" fill="#d26e28"/></g><g><path d="m276.686 187.314-9.373 9.373c-6.248 6.248-16.379 6.248-22.627 0l-41.373-41.373c-6.248-6.248-6.248-16.379 0-22.627l9.373-9.373c6.248-6.248 16.379-6.248 22.627 0l41.373 41.373c6.249 6.248 6.249 16.378 0 22.627z" fill="#a55023"/><path d="m244.686 155.314-9.373 9.373c-6.248 6.248-16.379 6.248-22.627 0l-9.373-9.373c-6.248-6.248-6.248-16.379 0-22.627l9.373-9.373c6.248-6.248 16.379-6.248 22.627 0l9.373 9.373c6.249 6.248 6.249 16.378 0 22.627z" fill="#d26e28"/></g><g><path d="m356.686 107.314-9.373 9.373c-6.248 6.248-16.379 6.248-22.627 0l-41.373-41.373c-6.248-6.248-6.248-16.379 0-22.627l9.373-9.373c6.248-6.248 16.379-6.248 22.627 0l41.373 41.373c6.249 6.248 6.249 16.378 0 22.627z" fill="#5faa46"/><path d="m324.686 75.314-9.373 9.373c-6.248 6.248-16.379 6.248-22.627 0l-9.373-9.373c-6.248-6.248-6.248-16.379 0-22.627l9.373-9.373c6.248-6.248 16.379-6.248 22.627 0l9.373 9.373c6.249 6.248 6.249 16.378 0 22.627z" fill="#91c83c"/></g><path d="m240 120h24c8.837 0 16-7.163 16-16v-24c-22.091 0-40 17.909-40 40z" fill="#f5826e"/><path d="m24 344c-4.418 0-8-3.582-8-8 0-26.468 21.533-48 48-48 4.418 0 8 3.582 8 8s-3.582 8-8 8c-17.645 0-32 14.355-32 32 0 4.418-3.582 8-8 8z" fill="#96aab9"/><path d="m176 496c-26.467 0-48-21.532-48-48s21.533-48 48-48c4.418 0 8 3.582 8 8s-3.582 8-8 8c-17.645 0-32 14.355-32 32s14.355 32 32 32 32-14.355 32-32c0-8.548-3.329-16.584-9.373-22.627-1.5-1.5-2.343-3.535-2.343-5.657s.843-4.156 2.343-5.657l283.716-283.716c3.124-3.123 8.189-3.123 11.313 0 3.125 3.125 3.125 8.189 0 11.314l-278.524 278.525c5.762 8.069 8.868 17.704 8.868 27.818 0 26.468-21.533 48-48 48z" fill="#555a6e"/><circle cx="392" cy="232" r="40" fill="#f04b37"/><g><path d="m298.343 389.657-4.686 4.686c-3.124 3.124-8.19 3.124-11.314 0l-52.686-52.686c-3.124-3.124-3.124-8.19 0-11.314l4.686-4.686c3.124-3.124 8.19-3.124 11.314 0l52.686 52.686c3.124 3.124 3.124 8.19 0 11.314z" fill="#faa019"/><path d="m266.343 357.657-4.686 4.686c-3.124 3.124-8.19 3.124-11.314 0l-20.686-20.686c-3.124-3.124-3.124-8.19 0-11.314l4.686-4.686c3.124-3.124 8.19-3.124 11.314 0l20.686 20.686c3.124 3.124 3.124 8.19 0 11.314z" fill="#ffd205"/></g><g><path d="m490.343 197.657-4.686 4.686c-3.124 3.124-8.19 3.124-11.314 0l-52.686-52.686c-3.124-3.124-3.124-8.19 0-11.314l4.686-4.686c3.124-3.124 8.19-3.124 11.314 0l52.686 52.686c3.124 3.124 3.124 8.19 0 11.314z" fill="#faa019"/><path d="m458.343 165.657-4.686 4.686c-3.124 3.124-8.19 3.124-11.314 0l-20.686-20.686c-3.124-3.124-3.124-8.19 0-11.314l4.686-4.686c3.124-3.124 8.19-3.124 11.314 0l20.686 20.686c3.124 3.124 3.124 8.19 0 11.314z" fill="#ffd205"/></g><g><path d="m324.686 363.314-9.373 9.373c-6.248 6.248-16.379 6.248-22.627 0l-41.373-41.373c-6.248-6.248-6.248-16.379 0-22.627l9.373-9.373c6.248-6.248 16.379-6.248 22.627 0l41.373 41.373c6.249 6.248 6.249 16.378 0 22.627z" fill="#5faa46"/><path d="m292.686 331.314-9.373 9.373c-6.248 6.248-16.379 6.248-22.627 0l-9.373-9.373c-6.248-6.248-6.248-16.379 0-22.627l9.373-9.373c6.248-6.248 16.379-6.248 22.627 0l9.373 9.373c6.249 6.248 6.249 16.378 0 22.627z" fill="#91c83c"/></g><g><path d="m356.686 331.314-9.373 9.373c-6.248 6.248-16.379 6.248-22.627 0l-41.373-41.373c-6.248-6.248-6.248-16.379 0-22.627l9.373-9.373c6.248-6.248 16.379-6.248 22.627 0l41.373 41.373c6.249 6.248 6.249 16.378 0 22.627z" fill="#a55023"/><path d="m324.686 299.314-9.373 9.373c-6.248 6.248-16.379 6.248-22.627 0l-9.373-9.373c-6.248-6.248-6.248-16.379 0-22.627l9.373-9.373c6.248-6.248 16.379-6.248 22.627 0l9.373 9.373c6.249 6.248 6.249 16.378 0 22.627z" fill="#d26e28"/></g><g><path d="m388.686 299.314-9.373 9.373c-6.248 6.248-16.379 6.248-22.627 0l-41.373-41.373c-6.248-6.248-6.248-16.379 0-22.627l9.373-9.373c6.248-6.248 16.379-6.248 22.627 0l41.373 41.373c6.249 6.248 6.249 16.378 0 22.627z" fill="#a55023"/><path d="m356.686 267.314-9.373 9.373c-6.248 6.248-16.379 6.248-22.627 0l-9.373-9.373c-6.248-6.248-6.248-16.379 0-22.627l9.373-9.373c6.248-6.248 16.379-6.248 22.627 0l9.373 9.373c6.249 6.248 6.249 16.378 0 22.627z" fill="#d26e28"/></g><g><path d="m468.686 219.314-9.373 9.373c-6.248 6.248-16.379 6.248-22.627 0l-41.373-41.373c-6.248-6.248-6.248-16.379 0-22.627l9.373-9.373c6.248-6.248 16.379-6.248 22.627 0l41.373 41.373c6.249 6.248 6.249 16.378 0 22.627z" fill="#5faa46"/><path d="m436.686 187.314-9.373 9.373c-6.248 6.248-16.379 6.248-22.627 0l-9.373-9.373c-6.248-6.248-6.248-16.379 0-22.627l9.373-9.373c6.248-6.248 16.379-6.248 22.627 0l9.373 9.373c6.249 6.248 6.249 16.378 0 22.627z" fill="#91c83c"/></g><path d="m352 232h24c8.837 0 16-7.163 16-16v-24c-22.091 0-40 17.909-40 40z" fill="#f5826e"/><path d="m136 456c-4.418 0-8-3.582-8-8 0-26.468 21.533-48 48-48 4.418 0 8 3.582 8 8s-3.582 8-8 8c-17.645 0-32 14.355-32 32 0 4.418-3.582 8-8 8z" fill="#96aab9"/></g><g transform="matrix(0.1171875 0 0 0.1171875 -14 122)" id="L1_5"><path d="m256 132.004c-12.925-2.624-26.301-4.004-40-4.004-110.457 0-200 89.543-200 200v16c0 22.091 17.909 40 40 40 22.091 0 40-17.909 40-40v-16c0-96.758 68.711-177.464 160-195.996z" fill="#f06423"/><circle cx="72" cy="304" r="40" fill="#e1322d"/><circle cx="192" cy="152" r="40" fill="#5faa46"/><circle cx="112" cy="184" r="40" fill="#e1322d"/><circle cx="352" cy="168" r="40" fill="#e1322d"/><circle cx="288" cy="152" r="40" fill="#5faa46"/><circle cx="240" cy="152" r="40" fill="#91c83c"/><g><circle cx="64" cy="336" r="32" fill="#a55023"/><circle cx="80" cy="272" r="32" fill="#a55023"/><circle cx="112" cy="216" r="32" fill="#a55023"/><circle cx="160" cy="192" r="32" fill="#a55023"/><circle cx="112" cy="256" r="32" fill="#d26e28"/><circle cx="80" cy="304" r="16" fill="#d26e28"/><circle cx="128" cy="186" r="16" fill="#d26e28"/><circle cx="48" cy="336" r="16" fill="#f28a39"/><circle cx="88" cy="240" r="16" fill="#f28a39"/></g><circle cx="128" cy="248" r="40" fill="#e1322d"/><path d="m296 128c-110.457 0-200 89.543-200 200v16c0 22.091-17.909 40-40 40h400c22.091 0 40-17.909 40-40v-16c0-110.457-89.543-200-200-200z" fill="#faa019"/><path d="m104 352c-4.418 0-8-3.582-8-8v-16c0-110.28 89.72-200 200-200 4.418 0 8 3.582 8 8s-3.582 8-8 8c-101.458 0-184 82.542-184 184v16c0 4.418-3.582 8-8 8z" fill="#ffd23c"/><g><circle cx="404" cy="268" r="12" fill="#f57828"/><circle cx="340" cy="236" r="12" fill="#f57828"/><circle cx="232" cy="320" r="16" fill="#f57828"/><circle cx="364" cy="324" r="4" fill="#f57828"/><circle cx="208" cy="264" r="8" fill="#f57828"/></g></g><g transform="matrix(0.1171875 0 0 0.1171875 146 287)" id="L1_6"><path d="m194.667 96h301.333v-16h-301.333c-4.418 0-8 3.582-8 8 0 4.418 3.581 8 8 8z" fill="#737079"/><path d="m186.667 88h309.333v-8h-301.333c-4.419 0-8 3.582-8 8z" fill="#96aab9"/><g><path d="m80 320h16c35.346 0 64-28.654 64-64 0-35.346-28.654-64-64-64h-16c-35.346 0-64 28.654-64 64 0 35.346 28.654 64 64 64z" fill="#5faa46"/><circle cx="96" cy="256" r="64" fill="#91c83c"/></g><g><path d="m120 320h16c35.346 0 64-28.654 64-64 0-35.346-28.654-64-64-64h-16c-35.346 0-64 28.654-64 64 0 35.346 28.654 64 64 64z" fill="#5faa46"/><circle cx="136" cy="256" r="64" fill="#91c83c"/></g><g><path d="m160 320h16c35.346 0 64-28.654 64-64 0-35.346-28.654-64-64-64h-16c-35.346 0-64 28.654-64 64 0 35.346 28.654 64 64 64z" fill="#5faa46"/><circle cx="176" cy="256" r="64" fill="#91c83c"/></g><g fill="#e1322d"><path d="m365.657 226.343-32-32c-3.124-3.124-8.189-3.124-11.313 0l-32 32c-3.125 3.124-3.125 8.189 0 11.313l32 32c1.562 1.562 3.609 2.343 5.657 2.343s4.095-.781 5.657-2.343l32-32c3.123-3.123 3.123-8.189-.001-11.313z"/><path d="m301.657 226.343-32-32c-3.124-3.124-8.189-3.124-11.313 0l-32 32c-3.125 3.124-3.125 8.189 0 11.313l32 32c1.562 1.562 3.609 2.343 5.657 2.343s4.095-.781 5.657-2.343l32-32c3.123-3.123 3.123-8.189-.001-11.313z"/><path d="m429.657 226.343-32-32c-3.124-3.124-8.189-3.124-11.313 0l-32 32c-3.125 3.124-3.125 8.189 0 11.313l32 32c1.562 1.562 3.609 2.343 5.657 2.343s4.095-.781 5.657-2.343l32-32c3.123-3.123 3.123-8.189-.001-11.313z"/></g><g><path d="m485.657 250.343-32-32c-3.124-3.124-8.189-3.124-11.313 0l-32 32c-3.125 3.124-3.125 8.189 0 11.313l32 32c1.562 1.562 3.609 2.343 5.657 2.343s4.095-.781 5.657-2.343l32-32c3.123-3.123 3.123-8.189-.001-11.313z" fill="#f04b37"/><path d="m416 264c-2.047 0-4.095-.781-5.657-2.343-3.125-3.124-3.125-8.189 0-11.313l32-32c3.124-3.124 8.189-3.124 11.313 0 3.125 3.124 3.125 8.189 0 11.313l-32 32c-1.561 1.562-3.609 2.343-5.656 2.343z" fill="#f5826e"/></g><g><path d="m421.657 250.343-32-32c-3.124-3.124-8.189-3.124-11.313 0l-32 32c-3.125 3.124-3.125 8.189 0 11.313l32 32c1.562 1.562 3.609 2.343 5.657 2.343s4.095-.781 5.657-2.343l32-32c3.123-3.123 3.123-8.189-.001-11.313z" fill="#f04b37"/><path d="m352 264c-2.047 0-4.095-.781-5.657-2.343-3.125-3.124-3.125-8.189 0-11.313l32-32c3.124-3.124 8.189-3.124 11.313 0 3.125 3.124 3.125 8.189 0 11.313l-32 32c-1.561 1.562-3.609 2.343-5.656 2.343z" fill="#f5826e"/></g><g><path d="m357.657 250.343-32-32c-3.124-3.124-8.189-3.124-11.313 0l-32 32c-3.125 3.124-3.125 8.189 0 11.313l32 32c1.562 1.562 3.609 2.343 5.657 2.343s4.095-.781 5.657-2.343l32-32c3.123-3.123 3.123-8.189-.001-11.313z" fill="#f04b37"/><path d="m288 264c-2.047 0-4.095-.781-5.657-2.343-3.125-3.124-3.125-8.189 0-11.313l32-32c3.124-3.124 8.189-3.124 11.313 0 3.125 3.124 3.125 8.189 0 11.313l-32 32c-1.561 1.562-3.609 2.343-5.656 2.343z" fill="#f5826e"/></g><g><path d="m293.657 66.343-32-32c-3.124-3.124-8.189-3.124-11.313 0l-32 32c-3.125 3.124-3.125 8.189 0 11.313l32 32c1.562 1.562 3.609 2.343 5.657 2.343s4.095-.781 5.657-2.343l32-32c3.123-3.123 3.123-8.189-.001-11.313z" fill="#f04b37"/><path d="m224 80c-2.047 0-4.095-.781-5.657-2.343-3.125-3.124-3.125-8.189 0-11.313l32-32c3.124-3.124 8.189-3.124 11.313 0 3.125 3.124 3.125 8.189 0 11.313l-32 32c-1.561 1.562-3.609 2.343-5.656 2.343z" fill="#f5826e"/></g><g><path d="m293.657 250.343-32-32c-3.124-3.124-8.189-3.124-11.313 0l-32 32c-3.125 3.124-3.125 8.189 0 11.313l32 32c1.562 1.562 3.609 2.343 5.657 2.343s4.095-.781 5.657-2.343l32-32c3.123-3.123 3.123-8.189-.001-11.313z" fill="#f04b37"/><path d="m224 264c-2.047 0-4.095-.781-5.657-2.343-3.125-3.124-3.125-8.189 0-11.313l32-32c3.124-3.124 8.189-3.124 11.313 0 3.125 3.124 3.125 8.189 0 11.313l-32 32c-1.561 1.562-3.609 2.343-5.656 2.343z" fill="#f5826e"/></g><circle cx="160" cy="256" r="32" fill="#faa019"/><circle cx="224" cy="256" r="32" fill="#faa019"/><circle cx="192" cy="256" r="32" fill="#ffd205"/><path d="m336 448h-160c-88.366 0-160-71.634-160-160v-16c0-8.837 7.163-16 16-16h448c8.837 0 16 7.163 16 16v16c0 88.366-71.634 160-160 160z" fill="#d7e6f0"/><path d="m176 432c-79.402 0-144-64.598-144-144v-8c0-4.418 3.582-8 8-8s8 3.582 8 8v8c0 70.58 57.42 128 128 128 4.418 0 8 3.582 8 8s-3.582 8-8 8z" fill="#ffffff"/><path d="m480 256h-160c8.837 0 16 7.163 16 16v16c0 88.365-71.635 160-160 160h160c88.365 0 160-71.635 160-160v-16c0-8.837-7.163-16-16-16z" fill="#a5c3dc"/><path d="m320 480h-128c-8.837 0-16-7.163-16-16v-16h160v16c0 8.837-7.163 16-16 16z" fill="#a5c3dc"/><path d="m194.667 64h301.333v-16h-301.333c-4.418 0-8 3.582-8 8 0 4.418 3.581 8 8 8z" fill="#737079"/><path d="m186.667 56h309.333v-8h-301.333c-4.419 0-8 3.582-8 8z" fill="#96aab9"/></g></defs><g fi:class="KUsePattern"><pattern id="pattern_L1_0" width="350" height="350" patternUnits="userSpaceOnUse"><use xlink:href="#L1_0" x="-350" y="-350"/><use xlink:href="#L1_0" x="0" y="-350"/><use xlink:href="#L1_0" x="350" y="-350"/><use xlink:href="#L1_0" x="-350" y="0"/><use xlink:href="#L1_0" x="0" y="0"/><use xlink:href="#L1_0" x="350" y="0"/><use xlink:href="#L1_0" x="-350" y="350"/><use xlink:href="#L1_0" x="0" y="350"/><use xlink:href="#L1_0" x="350" y="350"/></pattern><rect x="0" y="0" width="100%" height="100%" fill="url(#pattern_L1_0)"/></g><g fi:class="KUsePattern"><pattern id="pattern_L1_1" width="350" height="350" patternUnits="userSpaceOnUse"><use xlink:href="#L1_1" x="-350" y="-350"/><use xlink:href="#L1_1" x="0" y="-350"/><use xlink:href="#L1_1" x="350" y="-350"/><use xlink:href="#L1_1" x="-350" y="0"/><use xlink:href="#L1_1" x="0" y="0"/><use xlink:href="#L1_1" x="350" y="0"/><use xlink:href="#L1_1" x="-350" y="350"/><use xlink:href="#L1_1" x="0" y="350"/><use xlink:href="#L1_1" x="350" y="350"/></pattern><rect x="0" y="0" width="100%" height="100%" fill="url(#pattern_L1_1)"/></g><g fi:class="KUsePattern"><pattern id="pattern_L1_2" width="350" height="350" patternUnits="userSpaceOnUse"><use xlink:href="#L1_2" x="-350" y="-350"/><use xlink:href="#L1_2" x="0" y="-350"/><use xlink:href="#L1_2" x="350" y="-350"/><use xlink:href="#L1_2" x="-350" y="0"/><use xlink:href="#L1_2" x="0" y="0"/><use xlink:href="#L1_2" x="350" y="0"/><use xlink:href="#L1_2" x="-350" y="350"/><use xlink:href="#L1_2" x="0" y="350"/><use xlink:href="#L1_2" x="350" y="350"/></pattern><rect x="0" y="0" width="100%" height="100%" fill="url(#pattern_L1_2)"/></g><g fi:class="KUsePattern"><pattern id="pattern_L1_3" width="350" height="350" patternUnits="userSpaceOnUse"><use xlink:href="#L1_3" x="-350" y="-350"/><use xlink:href="#L1_3" x="0" y="-350"/><use xlink:href="#L1_3" x="350" y="-350"/><use xlink:href="#L1_3" x="-350" y="0"/><use xlink:href="#L1_3" x="0" y="0"/><use xlink:href="#L1_3" x="350" y="0"/><use xlink:href="#L1_3" x="-350" y="350"/><use xlink:href="#L1_3" x="0" y="350"/><use xlink:href="#L1_3" x="350" y="350"/></pattern><rect x="0" y="0" width="100%" height="100%" fill="url(#pattern_L1_3)"/></g><g fi:class="KUsePattern"><pattern id="pattern_L1_4" width="350" height="350" patternUnits="userSpaceOnUse"><use xlink:href="#L1_4" x="-350" y="-350"/><use xlink:href="#L1_4" x="0" y="-350"/><use xlink:href="#L1_4" x="350" y="-350"/><use xlink:href="#L1_4" x="-350" y="0"/><use xlink:href="#L1_4" x="0" y="0"/><use xlink:href="#L1_4" x="350" y="0"/><use xlink:href="#L1_4" x="-350" y="350"/><use xlink:href="#L1_4" x="0" y="350"/><use xlink:href="#L1_4" x="350" y="350"/></pattern><rect x="0" y="0" width="100%" height="100%" fill="url(#pattern_L1_4)"/></g><g fi:class="KUsePattern"><pattern id="pattern_L1_5" width="350" height="350" patternUnits="userSpaceOnUse"><use xlink:href="#L1_5" x="-350" y="-350"/><use xlink:href="#L1_5" x="0" y="-350"/><use xlink:href="#L1_5" x="350" y="-350"/><use xlink:href="#L1_5" x="-350" y="0"/><use xlink:href="#L1_5" x="0" y="0"/><use xlink:href="#L1_5" x="350" y="0"/><use xlink:href="#L1_5" x="-350" y="350"/><use xlink:href="#L1_5" x="0" y="350"/><use xlink:href="#L1_5" x="350" y="350"/></pattern><rect x="0" y="0" width="100%" height="100%" fill="url(#pattern_L1_5)"/></g><g fi:class="KUsePattern"><pattern id="pattern_L1_6" width="350" height="350" patternUnits="userSpaceOnUse"><use xlink:href="#L1_6" x="-350" y="-350"/><use xlink:href="#L1_6" x="0" y="-350"/><use xlink:href="#L1_6" x="350" y="-350"/><use xlink:href="#L1_6" x="-350" y="0"/><use xlink:href="#L1_6" x="0" y="0"/><use xlink:href="#L1_6" x="350" y="0"/><use xlink:href="#L1_6" x="-350" y="350"/><use xlink:href="#L1_6" x="0" y="350"/><use xlink:href="#L1_6" x="350" y="350"/></pattern><rect x="0" y="0" width="100%" height="100%" fill="url(#pattern_L1_6)"/></g></svg>